<?xml version="1.0" encoding="UTF-8"?>
<svg width="370px" height="370px" xmlns="http://www.w3.org/2000/svg">
	<title>1JPY</title>
	<desc>1-yen coin</desc>

	<circle cx="185" cy="185" r="180px" stroke-width="2px" stroke="black" fill="#eee" />
	<g stroke-width="1px" stroke="#fff">
		<circle cx="185" cy="185" r="165px" fill="#ddd" />
		<circle cx="185" cy="185" r="160px" fill="#ccc" />
		<circle cx="185" cy="185" r="105px" fill="#eee" />
		<circle cx="185" cy="185" r="52px" fill="#ccc" />
	</g>
	<path stroke-width="4px" stroke="#ccc" fill="#eee"
		d="M 146,114
		Q 160,108 164,96
		L 206,96
		L 206,246
		Q 206,254 224,256
		L 224,274
		L 146,274
		L 146,256
		Q 164,254 164,246
		L 164,130
		L 146,133 Z" />

	<g style="font-family: YuGothic; font-size: 36px; stroke: #fff; stroke-width: 2px; fill: #eee">
		<text x="58" y="260" transform="rotate(52,58,260)">
			平
		</text>
		<text x="103" y="308" transform="rotate(23,103,308)">
			成
		</text>
		<text x="164" y="328">
			十
		</text>
		<text x="225" y="323" transform="rotate(-23,225,323)">
			八
		</text>
		<text x="280" y="298" transform="rotate(-52,280,298)">
			年
		</text>
	</g>
</svg>
